mtllib ItmBox01.mtl

v -7.875000 0.000000 -5.906250
v -7.875000 5.906250 0.000000
v -7.875000 5.906250 -5.906250
v -7.875000 0.000000 0.000000
v -7.875000 -5.906250 0.000000
v -7.875000 -5.906250 5.906250
v 7.875000 0.000000 -5.906250
v 7.875000 -5.906250 0.000000
v 7.875000 -5.906250 -5.906250
v 7.875000 0.000000 0.000000
v 7.875000 5.906250 -5.906250
v 7.875000 5.906250 0.000000
v -5.906250 0.000000 7.875000
v 0.000000 5.906250 7.875000
v -5.906250 5.906250 7.875000
v 0.000000 0.000000 7.875000
v 0.000000 -5.906250 7.875000
v 5.906250 -5.906250 7.875000
v -5.906250 0.000000 -7.875000
v 0.000000 -5.906250 -7.875000
v -5.906250 -5.906250 -7.875000
v 0.000000 0.000000 -7.875000
v 0.000000 5.906250 -7.875000
v 5.906250 5.906250 -7.875000
v 0.000000 -7.875000 -5.906250
v -5.906250 -7.875000 0.000000
v -5.906250 -7.875000 -5.906250
v 0.000000 -7.875000 0.000000
v 5.906250 -7.875000 -5.906250
v 5.906250 -7.875000 0.000000
v 0.000000 -7.875000 -5.906250
v 5.906250 -5.906250 -7.875000
v 5.906250 -7.875000 -5.906250
v 0.000000 -5.906250 -7.875000
v -5.906250 -7.875000 -5.906250
v -5.906250 -5.906250 -7.875000
v 0.000000 7.875000 5.906250
v -5.906250 7.875000 0.000000
v -5.906250 7.875000 5.906250
v 0.000000 7.875000 0.000000
v 5.906250 7.875000 5.906250
v 5.906250 7.875000 0.000000
v 0.000000 7.875000 5.906250
v 5.906250 5.906250 7.875000
v 5.906250 7.875000 5.906250
v 0.000000 5.906250 7.875000
v -5.906250 7.875000 5.906250
v -5.906250 5.906250 7.875000
v 5.906250 5.906250 7.875000
v 5.906250 0.000000 7.875000
v -7.875000 0.000000 5.906250
v -5.906250 5.906250 7.875000
v -7.875000 5.906250 5.906250
v -5.906250 0.000000 7.875000
v -5.906250 -5.906250 7.875000
v -7.875000 5.906250 5.906250
v -7.875000 0.000000 5.906250
v 7.875000 -5.906250 5.906250
v 7.875000 0.000000 5.906250
v 7.875000 5.906250 5.906250
v 5.906250 -5.906250 -7.875000
v 5.906250 0.000000 -7.875000
v 5.906250 7.875000 -5.906250
v 7.875000 5.906250 0.000000
v 7.875000 5.906250 -5.906250
v 5.906250 7.875000 0.000000
v 7.875000 5.906250 5.906250
v -7.875000 5.906250 -5.906250
v -5.906250 7.875000 0.000000
v -5.906250 7.875000 -5.906250
v -7.875000 5.906250 0.000000
v -7.875000 -5.906250 0.000000
v -7.875000 -5.906250 -5.906250
v -5.906250 -7.875000 0.000000
v 5.906250 0.000000 -7.875000
v 7.875000 -5.906250 -5.906250
v 5.906250 -5.906250 -7.875000
v 7.875000 0.000000 -5.906250
v -7.875000 0.000000 -5.906250
v -7.875000 -5.906250 -5.906250
v -5.906250 0.000000 -7.875000
v -7.875000 -5.906250 5.906250
v -5.906250 -7.875000 5.906250
v 7.875000 0.000000 5.906250
v 7.875000 5.906250 5.906250
v 5.906250 0.000000 7.875000
v -5.906250 5.906250 -7.875000
v 7.875000 -5.906250 5.906250
v 5.906250 -5.906250 7.875000
v 5.906250 -7.875000 5.906250
v 0.000000 -7.875000 5.906250
v -5.906250 -7.875000 5.906250
v 5.906250 -7.875000 5.906250
v 7.875000 -5.906250 0.000000
v 5.906250 -7.875000 0.000000
v 5.906250 5.906250 -7.875000
v 0.000000 7.875000 -5.906250
v 0.000000 5.906250 -7.875000
v -5.906250 5.906250 -7.875000
v 5.906250 7.875000 -5.906250
v 0.000000 7.875000 -5.906250
v -5.906250 7.875000 -5.906250
v 7.875000 5.906250 -5.906250
v 5.906250 -5.906250 7.875000
v 0.000000 -7.875000 5.906250
v 0.000000 -5.906250 7.875000
v 7.875000 -5.906250 5.906250
v 5.906250 -5.906250 7.875000
v 5.906250 -7.875000 5.906250
v 5.906250 -7.875000 -5.906250
v 5.906250 -5.906250 -7.875000
v 7.875000 -5.906250 -5.906250
v 7.875000 5.906250 -5.906250
v 5.906250 5.906250 -7.875000
v 5.906250 7.875000 -5.906250
v 5.906250 7.875000 5.906250
v 5.906250 5.906250 7.875000
v 7.875000 5.906250 5.906250
v -7.875000 5.906250 5.906250
v -5.906250 5.906250 7.875000
v -5.906250 7.875000 5.906250
v -5.906250 5.906250 -7.875000
v -7.875000 5.906250 -5.906250
v -5.906250 7.875000 -5.906250
v -5.906250 -5.906250 7.875000
v -7.875000 -5.906250 5.906250
v -5.906250 -7.875000 5.906250
v -7.875000 -5.906250 -5.906250
v -5.906250 -5.906250 -7.875000
v -5.906250 -7.875000 -5.906250
v -7.875000 -5.906250 -5.906250
v -7.875000 -5.906250 5.906250
v -5.906250 5.906250 -7.875000
v -5.906250 -5.906250 7.875000

vt 0.992126 0.750000
vt 0.500000 0.995697
vt 0.992126 0.995697
vt 0.500000 0.750000
vt 0.500000 0.503937
vt 0.006317 0.503937
vt 0.992126 0.750000
vt 0.500000 0.503937
vt 0.992126 0.503937
vt 0.500000 0.750000
vt 0.992126 0.995697
vt 0.500000 0.995697
vt 0.006317 0.750000
vt 0.500000 0.995697
vt 0.006317 0.995697
vt 0.500000 0.750000
vt 0.500000 0.503937
vt 0.992126 0.503937
vt 0.006317 0.750000
vt 0.500000 0.503937
vt 0.006317 0.503937
vt 0.500000 0.750000
vt 0.500000 0.995697
vt 0.992126 0.995697
vt 0.500000 0.995697
vt 0.006317 0.750000
vt 0.006317 0.995697
vt 0.500000 0.750000
vt 0.992126 0.995697
vt 0.992126 0.750000
vt 0.015015 0.490265
vt 0.496399 0.005524
vt 0.015015 0.005524
vt 0.496399 0.490265
vt 0.015015 0.005524
vt 0.496399 0.005524
vt 0.500000 0.503937
vt 0.006317 0.750000
vt 0.006317 0.503937
vt 0.500000 0.750000
vt 0.992126 0.503937
vt 0.992126 0.750000
vt 0.496399 0.490265
vt 0.015015 0.005524
vt 0.496399 0.005524
vt 0.015015 0.490265
vt 0.496399 0.005524
vt 0.015015 0.005524
vt 0.992126 0.995697
vt 0.992126 0.750000
vt 0.015015 0.490265
vt 0.496399 0.005524
vt 0.015015 0.005524
vt 0.496399 0.490265
vt 0.496399 0.005524
vt 0.006317 0.995697
vt 0.006317 0.750000
vt 0.006317 0.503937
vt 0.006317 0.750000
vt 0.006317 0.995697
vt 0.992126 0.503937
vt 0.992126 0.750000
vt 0.496399 0.005524
vt 0.015015 0.490265
vt 0.015015 0.005524
vt 0.496399 0.490265
vt 0.015015 0.005524
vt 0.015015 0.005524
vt 0.496399 0.490265
vt 0.496399 0.005524
vt 0.015015 0.490265
vt 0.496399 0.490265
vt 0.496399 0.005524
vt 0.015015 0.490265
vt 0.015015 0.490265
vt 0.496399 0.005524
vt 0.015015 0.005524
vt 0.496399 0.490265
vt 0.015015 0.490265
vt 0.015015 0.005524
vt 0.496399 0.490265
vt 0.496399 0.005524
vt 0.015015 0.005524
vt 0.496399 0.490265
vt 0.496399 0.005524
vt 0.015015 0.490265
vt 0.496399 0.005524
vt 0.496399 0.005524
vt 0.015015 0.005524
vt 0.992126 0.503937
vt 0.500000 0.503937
vt 0.006317 0.503937
vt 0.015015 0.005524
vt 0.496399 0.490265
vt 0.015015 0.490265
vt 0.015015 0.005524
vt 0.496399 0.490265
vt 0.015015 0.490265
vt 0.015015 0.005524
vt 0.992126 0.995697
vt 0.500000 0.995697
vt 0.006317 0.995697
vt 0.496399 0.005524
vt 0.496399 0.005524
vt 0.015015 0.490265
vt 0.496399 0.490265
vt 0.966583 0.019623
vt 0.966583 0.269836
vt 0.517212 0.147400
vt 0.517212 0.147400
vt 0.966583 0.019623
vt 0.966583 0.269836
vt 0.966583 0.269836
vt 0.966583 0.019623
vt 0.517212 0.147400
vt 0.517212 0.147400
vt 0.966583 0.269836
vt 0.966583 0.019623
vt 0.966583 0.019623
vt 0.966583 0.269836
vt 0.517212 0.147400
vt 0.966583 0.019623
vt 0.966583 0.269836
vt 0.517212 0.147400
vt 0.966583 0.269836
vt 0.966583 0.019623
vt 0.517212 0.147400
vt 0.966583 0.269836
vt 0.966583 0.019623
vt 0.517212 0.147400
vt 0.992126 0.503937
vt 0.015015 0.005524
vt 0.006317 0.995697
vt 0.006317 0.503937

vn -0.926295 0.000000 -0.376798
vn -0.926295 0.376798 0.000000
vn -0.860742 0.359947 -0.359947
vn -1.000000 0.000000 0.000000
vn -0.926295 -0.376798 0.000000
vn -0.860742 -0.359947 0.359947
vn 0.926295 0.000000 -0.376798
vn 0.926295 -0.376798 0.000000
vn 0.860742 -0.359947 -0.359947
vn 1.000000 0.000000 0.000000
vn 0.860742 0.359947 -0.359947
vn 0.926295 0.376798 0.000000
vn -0.376798 0.000000 0.926295
vn 0.000000 0.376798 0.926295
vn -0.359947 0.359947 0.860742
vn 0.000000 0.000000 1.000000
vn 0.000000 -0.376798 0.926295
vn 0.359947 -0.359947 0.860742
vn -0.376798 0.000000 -0.926295
vn 0.000000 -0.376798 -0.926295
vn -0.359947 -0.359947 -0.860742
vn 0.000000 0.000000 -1.000000
vn 0.000000 0.376798 -0.926295
vn 0.359947 0.359947 -0.860742
vn 0.000000 -0.926295 -0.376798
vn -0.376798 -0.926295 0.000000
vn -0.359947 -0.860742 -0.359947
vn 0.000000 -1.000000 0.000000
vn 0.359947 -0.860742 -0.359947
vn 0.376798 -0.926295 0.000000
vn 0.000000 -0.926295 -0.376798
vn 0.359947 -0.359947 -0.860742
vn 0.359947 -0.860742 -0.359947
vn 0.000000 -0.376798 -0.926295
vn -0.359947 -0.860742 -0.359947
vn -0.359947 -0.359947 -0.860742
vn 0.000000 0.926295 0.376798
vn -0.376798 0.926295 0.000000
vn -0.359947 0.860742 0.359947
vn 0.000000 1.000000 0.000000
vn 0.359947 0.860742 0.359947
vn 0.376798 0.926295 0.000000
vn 0.000000 0.926295 0.376798
vn 0.359947 0.359947 0.860742
vn 0.359947 0.860742 0.359947
vn 0.000000 0.376798 0.926295
vn -0.359947 0.860742 0.359947
vn -0.359947 0.359947 0.860742
vn 0.359947 0.359947 0.860742
vn 0.376798 0.000000 0.926295
vn -0.926295 0.000000 0.376798
vn -0.359947 0.359947 0.860742
vn -0.860742 0.359947 0.359947
vn -0.376798 0.000000 0.926295
vn -0.359947 -0.359947 0.860742
vn -0.860742 0.359947 0.359947
vn -0.926295 0.000000 0.376798
vn 0.860742 -0.359947 0.359947
vn 0.926295 0.000000 0.376798
vn 0.860742 0.359947 0.359947
vn 0.359947 -0.359947 -0.860742
vn 0.376798 0.000000 -0.926295
vn 0.359947 0.860742 -0.359947
vn 0.926295 0.376798 0.000000
vn 0.860742 0.359947 -0.359947
vn 0.376798 0.926295 0.000000
vn 0.860742 0.359947 0.359947
vn -0.860742 0.359947 -0.359947
vn -0.376798 0.926295 0.000000
vn -0.359947 0.860742 -0.359947
vn -0.926295 0.376798 0.000000
vn -0.926295 -0.376798 0.000000
vn -0.860742 -0.359947 -0.359947
vn -0.376798 -0.926295 0.000000
vn 0.376798 0.000000 -0.926295
vn 0.860742 -0.359947 -0.359947
vn 0.359947 -0.359947 -0.860742
vn 0.926295 0.000000 -0.376798
vn -0.926295 0.000000 -0.376798
vn -0.860742 -0.359947 -0.359947
vn -0.376798 0.000000 -0.926295
vn -0.860742 -0.359947 0.359947
vn -0.359947 -0.860742 0.359947
vn 0.926295 0.000000 0.376798
vn 0.860742 0.359947 0.359947
vn 0.376798 0.000000 0.926295
vn -0.359947 0.359947 -0.860742
vn 0.860742 -0.359947 0.359947
vn 0.359947 -0.359947 0.860742
vn 0.359947 -0.860742 0.359947
vn 0.000000 -0.926295 0.376798
vn -0.359947 -0.860742 0.359947
vn 0.359947 -0.860742 0.359947
vn 0.926295 -0.376798 0.000000
vn 0.376798 -0.926295 0.000000
vn 0.359947 0.359947 -0.860742
vn 0.000000 0.926295 -0.376798
vn 0.000000 0.376798 -0.926295
vn -0.359947 0.359947 -0.860742
vn 0.359947 0.860742 -0.359947
vn 0.000000 0.926295 -0.376798
vn -0.359947 0.860742 -0.359947
vn 0.860742 0.359947 -0.359947
vn 0.359947 -0.359947 0.860742
vn 0.000000 -0.926295 0.376798
vn 0.000000 -0.376798 0.926295
vn 0.860742 -0.359947 0.359947
vn 0.359947 -0.359947 0.860742
vn 0.359947 -0.860742 0.359947
vn 0.359947 -0.860742 -0.359947
vn 0.359947 -0.359947 -0.860742
vn 0.860742 -0.359947 -0.359947
vn 0.860742 0.359947 -0.359947
vn 0.359947 0.359947 -0.860742
vn 0.359947 0.860742 -0.359947
vn 0.359947 0.860742 0.359947
vn 0.359947 0.359947 0.860742
vn 0.860742 0.359947 0.359947
vn -0.860742 0.359947 0.359947
vn -0.359947 0.359947 0.860742
vn -0.359947 0.860742 0.359947
vn -0.359947 0.359947 -0.860742
vn -0.860742 0.359947 -0.359947
vn -0.359947 0.860742 -0.359947
vn -0.359947 -0.359947 0.860742
vn -0.860742 -0.359947 0.359947
vn -0.359947 -0.860742 0.359947
vn -0.860742 -0.359947 -0.359947
vn -0.359947 -0.359947 -0.860742
vn -0.359947 -0.860742 -0.359947
vn -0.860742 -0.359947 -0.359947
vn -0.860742 -0.359947 0.359947
vn -0.359947 0.359947 -0.860742
vn -0.359947 -0.359947 0.860742

g polygon0
s 1
usemtl mat1
f 1/1/1 2/2/2 3/3/3
f 1/1/1 4/4/4 2/2/2
f 5/5/5 4/4/4 1/1/1
f 5/5/5 6/6/6 4/4/4
f 7/7/7 8/8/8 9/9/9
f 7/7/7 10/10/10 8/8/8
f 11/11/11 10/10/10 7/7/7
f 11/11/11 12/12/12 10/10/10
f 13/13/13 14/14/14 15/15/15
f 13/13/13 16/16/16 14/14/14
f 17/17/17 16/16/16 13/13/13
f 17/17/17 18/18/18 16/16/16
f 19/19/19 20/20/20 21/21/21
f 19/19/19 22/22/22 20/20/20
f 23/23/23 22/22/22 19/19/19
f 23/23/23 24/24/24 22/22/22
f 25/25/25 26/26/26 27/27/27
f 25/25/25 28/28/28 26/26/26
f 29/29/29 28/28/28 25/25/25
f 29/29/29 30/30/30 28/28/28
f 31/31/31 32/32/32 33/33/33
f 31/31/31 34/34/34 32/32/32
f 35/35/35 34/34/34 31/31/31
f 35/35/35 36/36/36 34/34/34
f 37/37/37 38/38/38 39/39/39
f 37/37/37 40/40/40 38/38/38
f 41/41/41 40/40/40 37/37/37
f 41/41/41 42/42/42 40/40/40
f 43/43/43 44/44/44 45/45/45
f 43/43/43 46/46/46 44/44/44
f 47/47/47 46/46/46 43/43/43
f 47/47/47 48/48/48 46/46/46
f 16/16/16 49/49/49 14/14/14
f 16/16/16 50/50/50 49/49/49
f 18/18/18 50/50/50 16/16/16
f 51/51/51 52/52/52 53/53/53
f 51/51/51 54/54/54 52/52/52
f 55/55/55 54/54/54 51/51/51
f 4/4/4 56/56/56 2/2/2
f 4/4/4 57/57/57 56/56/56
f 6/6/6 57/57/57 4/4/4
f 10/10/10 58/58/58 8/8/8
f 10/10/10 59/59/59 58/58/58
f 60/60/60 59/59/59 10/10/10
f 22/22/22 61/61/61 20/20/20
f 22/22/22 62/62/62 61/61/61
f 24/24/24 62/62/62 22/22/22
f 63/63/63 64/64/64 65/65/65
f 63/63/63 66/66/66 64/64/64
f 45/45/45 64/64/64 66/66/66
f 45/45/45 67/67/67 64/64/64
f 68/68/68 69/69/69 70/70/70
f 68/68/68 71/71/71 69/69/69
f 35/35/35 72/72/72 73/73/73
f 35/35/35 74/74/74 72/72/72
f 71/71/71 47/47/47 69/69/69
f 71/71/71 53/53/53 47/47/47
f 75/75/75 76/76/76 77/77/77
f 75/75/75 78/78/78 76/76/76
f 79/79/79 36/36/36 80/80/80
f 79/79/79 81/81/81 36/36/36
f 82/82/82 74/74/74 83/83/83
f 82/82/82 72/72/72 74/74/74
f 44/44/44 84/84/84 85/85/85
f 44/44/44 86/86/86 84/84/84
f 87/87/87 79/79/79 68/68/68
f 87/87/87 81/81/81 79/79/79
f 86/86/86 88/88/88 84/84/84
f 86/86/86 89/89/89 88/88/88
f 90/90/90 28/28/28 30/30/30
f 90/90/90 91/91/91 28/28/28
f 92/92/92 28/28/28 91/91/91
f 92/92/92 26/26/26 28/28/28
f 93/93/93 94/94/94 88/88/88
f 93/93/93 95/95/95 94/94/94
f 96/96/96 97/97/97 63/63/63
f 96/96/96 98/98/98 97/97/97
f 98/98/98 70/70/70 97/97/97
f 98/98/98 99/99/99 70/70/70
f 95/95/95 76/76/76 94/94/94
f 95/95/95 33/33/33 76/76/76
f 100/100/100 40/40/40 42/42/42
f 100/100/100 101/101/101 40/40/40
f 102/102/102 40/40/40 101/101/101
f 102/102/102 38/38/38 40/40/40
f 103/103/103 75/75/75 96/96/96
f 103/103/103 78/78/78 75/75/75
f 104/104/104 105/105/105 93/93/93
f 104/104/104 106/106/106 105/105/105
f 106/106/106 83/83/83 105/105/105
f 106/106/106 55/55/55 83/83/83
f 107/107/107 108/108/108 109/109/109
f 110/110/110 111/111/111 112/112/112
f 113/113/113 114/114/114 115/115/115
f 116/116/116 117/117/117 118/118/118
f 119/119/119 120/120/120 121/121/121
f 122/122/122 123/123/123 124/124/124
f 125/125/125 126/126/126 127/127/127
f 128/128/128 129/129/129 130/130/130
f 1/1/1 131/131/131 5/5/5
f 10/10/10 12/12/12 60/60/60
f 51/51/51 132/132/132 55/55/55
f 19/19/19 133/133/133 23/23/23
f 13/13/13 134/134/134 17/17/17

