mtllib ItmBox00.mtl

v -6.750000 6.750000 6.750000
v 6.750000 6.750000 -6.750000
v -6.750000 6.750000 -6.750000
v 6.750000 6.750000 6.750000
v 6.750000 -6.750000 6.750000
v -6.750000 -6.750000 -6.750000
v 6.750000 -6.750000 -6.750000
v -6.750000 -6.750000 6.750000
v -6.750000 -6.750000 -6.750000
v 6.750000 6.750000 -6.750000
v 6.750000 -6.750000 -6.750000
v -6.750000 6.750000 -6.750000
v 6.750000 -6.750000 6.750000
v -6.750000 6.750000 6.750000
v -6.750000 -6.750000 6.750000
v 6.750000 6.750000 6.750000

vt 0.000000 0.554688
vt 1.000000 0.109375
vt 0.000000 0.109375
vt 1.000000 0.554688
vt 1.000000 0.554688
vt 0.000000 0.109375
vt 1.000000 0.109375
vt 0.000000 0.554688
vt 0.000000 0.109375
vt 1.000000 0.554688
vt 1.000000 0.109375
vt 0.000000 0.554688
vt 1.000000 0.109375
vt 0.000000 0.554688
vt 0.000000 0.109375
vt 1.000000 0.554688

vn 0.000000 1.000000 0.000000
vn 0.000000 1.000000 0.000000
vn 0.000000 1.000000 0.000000
vn 0.000000 1.000000 0.000000
vn 0.000000 -1.000000 0.000000
vn 0.000000 -1.000000 0.000000
vn 0.000000 -1.000000 0.000000
vn 0.000000 -1.000000 0.000000
vn 0.000000 0.000000 -1.000000
vn 0.000000 0.000000 -1.000000
vn 0.000000 0.000000 -1.000000
vn 0.000000 0.000000 -1.000000
vn 0.000000 0.000000 1.000000
vn 0.000000 0.000000 1.000000
vn 0.000000 0.000000 1.000000
vn 0.000000 0.000000 1.000000

g polygon0
s 1
usemtl mat1
f 1/1/1 2/2/2 3/3/3
f 1/1/1 4/4/4 2/2/2
f 5/5/5 6/6/6 7/7/7
f 5/5/5 8/8/8 6/6/6
f 9/9/9 10/10/10 11/11/11
f 9/9/9 12/12/12 10/10/10
f 13/13/13 14/14/14 15/15/15
f 13/13/13 16/16/16 14/14/14

v -6.000000 7.500000 6.000000
v -7.500000 7.500000 -7.500000
v -7.500000 7.500000 7.500000
v -6.000000 7.500000 -6.000000
v -7.500000 7.500000 7.500000
v -6.000000 -6.000000 7.500000
v -6.000000 6.000000 7.500000
v -7.500000 -7.500000 7.500000
v -7.500000 6.000000 6.000000
v -7.500000 -7.500000 7.500000
v -7.500000 7.500000 7.500000
v -7.500000 -6.000000 6.000000
v -7.500000 -7.500000 7.500000
v -6.000000 -7.500000 -6.000000
v -6.000000 -7.500000 6.000000
v -7.500000 -7.500000 -7.500000
v -7.500000 -7.500000 7.500000
v 6.000000 -6.000000 7.500000
v -6.000000 -6.000000 7.500000
v 7.500000 -7.500000 7.500000
v -7.500000 -6.000000 6.000000
v -7.500000 -7.500000 -7.500000
v -7.500000 -7.500000 7.500000
v -7.500000 -6.000000 -6.000000
v -7.500000 -7.500000 -7.500000
v 6.000000 -7.500000 -6.000000
v -6.000000 -7.500000 -6.000000
v 7.500000 -7.500000 -7.500000
v -7.500000 -6.000000 -6.000000
v -7.500000 7.500000 -7.500000
v -7.500000 -7.500000 -7.500000
v -7.500000 6.000000 -6.000000
v -7.500000 -7.500000 -7.500000
v -6.000000 6.000000 -7.500000
v -6.000000 -6.000000 -7.500000
v -7.500000 7.500000 -7.500000
v -7.500000 7.500000 -7.500000
v 6.000000 6.000000 -7.500000
v -6.000000 6.000000 -7.500000
v 7.500000 7.500000 -7.500000
v -6.000000 7.500000 -6.000000
v 7.500000 7.500000 -7.500000
v -7.500000 7.500000 -7.500000
v 6.000000 7.500000 -6.000000
v -6.000000 -6.000000 -7.500000
v 7.500000 -7.500000 -7.500000
v -7.500000 -7.500000 -7.500000
v 6.000000 -6.000000 -7.500000
v 6.000000 7.500000 -6.000000
v 7.500000 7.500000 7.500000
v 7.500000 7.500000 -7.500000
v 6.000000 7.500000 6.000000
v 7.500000 6.000000 -6.000000
v 7.500000 -7.500000 -7.500000
v 7.500000 7.500000 -7.500000
v 7.500000 -6.000000 -6.000000
v -6.000000 -7.500000 6.000000
v 7.500000 -7.500000 7.500000
v -7.500000 -7.500000 7.500000
v 6.000000 -7.500000 6.000000
v 7.500000 -6.000000 -6.000000
v 7.500000 -7.500000 7.500000
v 7.500000 -7.500000 -7.500000
v 7.500000 -6.000000 6.000000
v -6.000000 6.000000 7.500000
v 7.500000 7.500000 7.500000
v -7.500000 7.500000 7.500000
v 6.000000 6.000000 7.500000
v 7.500000 -6.000000 6.000000
v 7.500000 7.500000 7.500000
v 7.500000 -7.500000 7.500000
v 7.500000 6.000000 6.000000
v 7.500000 7.500000 -7.500000
v 7.500000 6.000000 6.000000
v 7.500000 6.000000 -6.000000
v 7.500000 7.500000 7.500000
v -7.500000 7.500000 7.500000
v 6.000000 7.500000 6.000000
v -6.000000 7.500000 6.000000
v 7.500000 7.500000 7.500000
v -7.500000 7.500000 7.500000
v -7.500000 6.000000 -6.000000
v -7.500000 6.000000 6.000000
v -7.500000 7.500000 -7.500000
v 7.500000 -7.500000 7.500000
v 6.000000 6.000000 7.500000
v 6.000000 -6.000000 7.500000
v 7.500000 7.500000 7.500000
v -6.000000 -6.000000 6.000000
v 6.000000 -7.500000 6.000000
v -6.000000 -7.500000 6.000000
v 6.000000 -6.000000 6.000000
v -6.000000 7.500000 6.000000
v 6.000000 6.000000 6.000000
v -6.000000 6.000000 6.000000
v 6.000000 7.500000 6.000000
v 7.500000 6.000000 6.000000
v 7.500000 -6.000000 6.000000
v 6.000000 6.000000 6.000000
v -7.500000 -6.000000 6.000000
v -7.500000 6.000000 6.000000
v -6.000000 -6.000000 6.000000
v -6.000000 -6.000000 6.000000
v -6.000000 6.000000 7.500000
v -6.000000 -6.000000 7.500000
v -6.000000 6.000000 6.000000
v 6.000000 6.000000 6.000000
v 6.000000 -6.000000 7.500000
v 6.000000 6.000000 7.500000
v 6.000000 -6.000000 6.000000
v -6.000000 6.000000 6.000000
v 6.000000 6.000000 7.500000
v -6.000000 6.000000 7.500000
v 6.000000 6.000000 6.000000
v 6.000000 -6.000000 6.000000
v -6.000000 -6.000000 7.500000
v 6.000000 -6.000000 7.500000
v -6.000000 -6.000000 6.000000
v 6.000000 7.500000 -6.000000
v -6.000000 6.000000 -6.000000
v 6.000000 6.000000 -6.000000
v -6.000000 7.500000 -6.000000
v 6.000000 -6.000000 -6.000000
v -6.000000 -7.500000 -6.000000
v 6.000000 -7.500000 -6.000000
v -6.000000 -6.000000 -6.000000
v 6.000000 6.000000 -6.000000
v 7.500000 -6.000000 -6.000000
v 7.500000 6.000000 -6.000000
v -6.000000 -6.000000 -6.000000
v -7.500000 6.000000 -6.000000
v -7.500000 -6.000000 -6.000000
v 7.500000 7.500000 -7.500000
v 6.000000 -6.000000 -7.500000
v 6.000000 6.000000 -7.500000
v 7.500000 -7.500000 -7.500000
v -6.000000 -6.000000 -7.500000
v -6.000000 6.000000 -6.000000
v -6.000000 -6.000000 -6.000000
v -6.000000 6.000000 -7.500000
v 6.000000 6.000000 -7.500000
v 6.000000 -6.000000 -6.000000
v 6.000000 6.000000 -6.000000
v 6.000000 -6.000000 -7.500000
v -6.000000 6.000000 -7.500000
v 6.000000 6.000000 -6.000000
v -6.000000 6.000000 -6.000000
v 6.000000 6.000000 -7.500000
v 6.000000 -6.000000 -7.500000
v -6.000000 -6.000000 -6.000000
v 6.000000 -6.000000 -6.000000
v -6.000000 -6.000000 -7.500000
v 6.000000 7.500000 6.000000
v 6.000000 6.000000 -6.000000
v 6.000000 7.500000 -6.000000
v 6.000000 -6.000000 6.000000
v 6.000000 -7.500000 -6.000000
v 6.000000 -7.500000 6.000000
v 7.500000 6.000000 -6.000000
v 7.500000 6.000000 6.000000
v 6.000000 6.000000 -6.000000
v 6.000000 -6.000000 -6.000000
v 7.500000 -6.000000 6.000000
v 7.500000 -6.000000 -6.000000
v -6.000000 -7.500000 6.000000
v -6.000000 -7.500000 -6.000000
v -6.000000 -6.000000 6.000000
v -6.000000 7.500000 -6.000000
v -6.000000 6.000000 -6.000000
v -6.000000 7.500000 6.000000
v 7.500000 -7.500000 -7.500000
v 6.000000 -7.500000 6.000000
v 6.000000 -7.500000 -6.000000
v 7.500000 -7.500000 7.500000
v -6.000000 -6.000000 6.000000
v -7.500000 -6.000000 -6.000000
v -7.500000 -6.000000 6.000000
v -7.500000 6.000000 6.000000
v -7.500000 6.000000 -6.000000
v -6.000000 6.000000 6.000000

vt 0.898438 0.000000
vt 0.000000 0.054688
vt 1.000000 0.054688
vt 0.101563 0.000000
vt 1.000000 0.054688
vt 0.101563 0.000000
vt 0.898438 0.000000
vt 0.000000 0.054688
vt 0.101563 0.000000
vt 1.000000 0.054688
vt 0.000000 0.054688
vt 0.898438 0.000000
vt 1.000000 0.054688
vt 0.101563 0.000000
vt 0.898438 0.000000
vt 0.000000 0.054688
vt 1.000000 0.054688
vt 0.101563 0.000000
vt 0.898438 0.000000
vt 0.000000 0.054688
vt 0.101563 0.000000
vt 1.000000 0.054688
vt 0.000000 0.054688
vt 0.898438 0.000000
vt 1.000000 0.054688
vt 0.101563 0.000000
vt 0.898438 0.000000
vt 0.000000 0.054688
vt 0.101563 0.000000
vt 1.000000 0.054688
vt 0.000000 0.054688
vt 0.898438 0.000000
vt 0.000000 0.054688
vt 0.898438 0.000000
vt 0.101563 0.000000
vt 1.000000 0.054688
vt 0.000000 0.054688
vt 0.898438 0.000000
vt 0.101563 0.000000
vt 1.000000 0.054688
vt 0.898438 0.000000
vt 0.000000 0.054688
vt 1.000000 0.054688
vt 0.101563 0.000000
vt 0.898438 0.000000
vt 0.000000 0.054688
vt 1.000000 0.054688
vt 0.101563 0.000000
vt 0.898438 0.000000
vt 0.000000 0.054688
vt 1.000000 0.054688
vt 0.101563 0.000000
vt 0.898438 0.000000
vt 0.000000 0.054688
vt 1.000000 0.054688
vt 0.101563 0.000000
vt 0.101563 0.000000
vt 1.000000 0.054688
vt 0.000000 0.054688
vt 0.898438 0.000000
vt 0.898438 0.000000
vt 0.000000 0.054688
vt 1.000000 0.054688
vt 0.101563 0.000000
vt 0.101563 0.000000
vt 1.000000 0.054688
vt 0.000000 0.054688
vt 0.898438 0.000000
vt 0.898438 0.000000
vt 0.000000 0.054688
vt 1.000000 0.054688
vt 0.101563 0.000000
vt 0.000000 0.054688
vt 0.898438 0.000000
vt 0.101563 0.000000
vt 1.000000 0.054688
vt 0.000000 0.054688
vt 0.898438 0.000000
vt 0.101563 0.000000
vt 1.000000 0.054688
vt 1.000000 0.054688
vt 0.101563 0.000000
vt 0.898438 0.000000
vt 0.000000 0.054688
vt 1.000000 0.054688
vt 0.101563 0.000000
vt 0.898438 0.000000
vt 0.000000 0.054688
vt 0.101563 0.000000
vt 0.898438 0.000000
vt 0.101563 0.000000
vt 0.898438 0.000000
vt 0.101563 0.000000
vt 0.898438 0.000000
vt 0.101563 0.000000
vt 0.898438 0.000000
vt 0.101563 0.000000
vt 0.898438 0.000000
vt 0.101563 0.000000
vt 0.898438 0.000000
vt 0.101563 0.000000
vt 0.898438 0.000000
vt 0.101563 0.000000
vt 0.898438 0.000000
vt 0.101563 0.000000
vt 0.898438 0.000000
vt 0.101563 0.000000
vt 0.898438 0.000000
vt 0.101563 0.000000
vt 0.898438 0.000000
vt 0.101563 0.000000
vt 0.898438 0.000000
vt 0.101563 0.000000
vt 0.898438 0.000000
vt 0.101563 0.000000
vt 0.898438 0.000000
vt 0.101563 0.000000
vt 0.898438 0.000000
vt 0.101563 0.000000
vt 0.898438 0.000000
vt 0.101563 0.000000
vt 0.898438 0.000000
vt 0.101563 0.000000
vt 0.898438 0.000000
vt 0.101563 0.000000
vt 0.898438 0.000000
vt 0.898438 0.000000
vt 0.101563 0.000000
vt 0.898438 0.000000
vt 0.101563 0.000000
vt 0.898438 0.000000
vt 0.101563 0.000000
vt 0.000000 0.054688
vt 0.898438 0.000000
vt 0.101563 0.000000
vt 1.000000 0.054688
vt 0.101563 0.000000
vt 0.898438 0.000000
vt 0.101563 0.000000
vt 0.898438 0.000000
vt 0.101563 0.000000
vt 0.898438 0.000000
vt 0.101563 0.000000
vt 0.898438 0.000000
vt 0.101563 0.000000
vt 0.898438 0.000000
vt 0.101563 0.000000
vt 0.898438 0.000000
vt 0.101563 0.000000
vt 0.898438 0.000000
vt 0.101563 0.000000
vt 0.898438 0.000000
vt 0.101563 0.000000
vt 0.898438 0.000000
vt 0.898438 0.000000
vt 0.101563 0.000000
vt 0.898438 0.000000
vt 0.101563 0.000000
vt 0.101563 0.000000
vt 0.898438 0.000000
vt 0.101563 0.000000
vt 0.898438 0.000000
vt 0.101563 0.000000
vt 0.898438 0.000000
vt 0.898438 0.000000
vt 0.101563 0.000000
vt 0.898438 0.000000
vt 0.101563 0.000000
vt 0.101563 0.000000
vt 0.898438 0.000000
vt 1.000000 0.054688
vt 0.101563 0.000000
vt 0.898438 0.000000
vt 0.000000 0.054688
vt 0.101563 0.000000
vt 0.898438 0.000000
vt 0.101563 0.000000
vt 0.898438 0.000000
vt 0.101563 0.000000
vt 0.898438 0.000000

vn 0.000000 1.000000 0.000000
vn 0.000000 1.000000 0.000000
vn 0.000000 1.000000 0.000000
vn 0.000000 1.000000 0.000000
vn 0.000000 0.000000 1.000000
vn 0.000000 0.000000 1.000000
vn 0.000000 0.000000 1.000000
vn 0.000000 0.000000 1.000000
vn -1.000000 0.000000 0.000000
vn -1.000000 0.000000 0.000000
vn -1.000000 0.000000 0.000000
vn -1.000000 0.000000 0.000000
vn 0.000000 -1.000000 0.000000
vn 0.000000 -1.000000 0.000000
vn 0.000000 -1.000000 0.000000
vn 0.000000 -1.000000 0.000000
vn 0.000000 0.000000 1.000000
vn 0.000000 0.000000 1.000000
vn 0.000000 0.000000 1.000000
vn 0.000000 0.000000 1.000000
vn -1.000000 0.000000 0.000000
vn -1.000000 0.000000 0.000000
vn -1.000000 0.000000 0.000000
vn -1.000000 0.000000 0.000000
vn 0.000000 -1.000000 0.000000
vn 0.000000 -1.000000 0.000000
vn 0.000000 -1.000000 0.000000
vn 0.000000 -1.000000 0.000000
vn -1.000000 0.000000 0.000000
vn -1.000000 0.000000 0.000000
vn -1.000000 0.000000 0.000000
vn -1.000000 0.000000 0.000000
vn 0.000000 0.000000 -1.000000
vn 0.000000 0.000000 -1.000000
vn 0.000000 0.000000 -1.000000
vn 0.000000 0.000000 -1.000000
vn 0.000000 0.000000 -1.000000
vn 0.000000 0.000000 -1.000000
vn 0.000000 0.000000 -1.000000
vn 0.000000 0.000000 -1.000000
vn 0.000000 1.000000 0.000000
vn 0.000000 1.000000 0.000000
vn 0.000000 1.000000 0.000000
vn 0.000000 1.000000 0.000000
vn 0.000000 0.000000 -1.000000
vn 0.000000 0.000000 -1.000000
vn 0.000000 0.000000 -1.000000
vn 0.000000 0.000000 -1.000000
vn 0.000000 1.000000 0.000000
vn 0.000000 1.000000 0.000000
vn 0.000000 1.000000 0.000000
vn 0.000000 1.000000 0.000000
vn 1.000000 0.000000 0.000000
vn 1.000000 0.000000 0.000000
vn 1.000000 0.000000 0.000000
vn 1.000000 0.000000 0.000000
vn 0.000000 -1.000000 0.000000
vn 0.000000 -1.000000 0.000000
vn 0.000000 -1.000000 0.000000
vn 0.000000 -1.000000 0.000000
vn 1.000000 0.000000 0.000000
vn 1.000000 0.000000 0.000000
vn 1.000000 0.000000 0.000000
vn 1.000000 0.000000 0.000000
vn 0.000000 0.000000 1.000000
vn 0.000000 0.000000 1.000000
vn 0.000000 0.000000 1.000000
vn 0.000000 0.000000 1.000000
vn 1.000000 0.000000 0.000000
vn 1.000000 0.000000 0.000000
vn 1.000000 0.000000 0.000000
vn 1.000000 0.000000 0.000000
vn 1.000000 0.000000 0.000000
vn 1.000000 0.000000 0.000000
vn 1.000000 0.000000 0.000000
vn 1.000000 0.000000 0.000000
vn 0.000000 1.000000 0.000000
vn 0.000000 1.000000 0.000000
vn 0.000000 1.000000 0.000000
vn 0.000000 1.000000 0.000000
vn -1.000000 0.000000 0.000000
vn -1.000000 0.000000 0.000000
vn -1.000000 0.000000 0.000000
vn -1.000000 0.000000 0.000000
vn 0.000000 0.000000 1.000000
vn 0.000000 0.000000 1.000000
vn 0.000000 0.000000 1.000000
vn 0.000000 0.000000 1.000000
vn 0.000000 0.000000 -1.000000
vn 0.000000 0.000000 -1.000000
vn 0.000000 0.000000 -1.000000
vn 0.000000 0.000000 -1.000000
vn 0.000000 0.000000 -1.000000
vn 0.000000 0.000000 -1.000000
vn 0.000000 0.000000 -1.000000
vn 0.000000 0.000000 -1.000000
vn 0.000000 0.000000 -1.000000
vn 0.000000 0.000000 -1.000000
vn 0.000000 0.000000 -1.000000
vn 0.000000 0.000000 -1.000000
vn 0.000000 0.000000 -1.000000
vn 0.000000 0.000000 -1.000000
vn 1.000000 0.000000 0.000000
vn 1.000000 0.000000 0.000000
vn 1.000000 0.000000 0.000000
vn 1.000000 0.000000 0.000000
vn -1.000000 0.000000 0.000000
vn -1.000000 0.000000 0.000000
vn -1.000000 0.000000 0.000000
vn -1.000000 0.000000 0.000000
vn 0.000000 -1.000000 0.000000
vn 0.000000 -1.000000 0.000000
vn 0.000000 -1.000000 0.000000
vn 0.000000 -1.000000 0.000000
vn 0.000000 1.000000 0.000000
vn 0.000000 1.000000 0.000000
vn 0.000000 1.000000 0.000000
vn 0.000000 1.000000 0.000000
vn 0.000000 0.000000 1.000000
vn 0.000000 0.000000 1.000000
vn 0.000000 0.000000 1.000000
vn 0.000000 0.000000 1.000000
vn 0.000000 0.000000 1.000000
vn 0.000000 0.000000 1.000000
vn 0.000000 0.000000 1.000000
vn 0.000000 0.000000 1.000000
vn 0.000000 0.000000 1.000000
vn 0.000000 0.000000 1.000000
vn 0.000000 0.000000 1.000000
vn 0.000000 0.000000 1.000000
vn 0.000000 0.000000 1.000000
vn 0.000000 0.000000 1.000000
vn 0.000000 0.000000 -1.000000
vn 0.000000 0.000000 -1.000000
vn 0.000000 0.000000 -1.000000
vn 0.000000 0.000000 -1.000000
vn 1.000000 0.000000 0.000000
vn 1.000000 0.000000 0.000000
vn 1.000000 0.000000 0.000000
vn 1.000000 0.000000 0.000000
vn -1.000000 0.000000 0.000000
vn -1.000000 0.000000 0.000000
vn -1.000000 0.000000 0.000000
vn -1.000000 0.000000 0.000000
vn 0.000000 -1.000000 0.000000
vn 0.000000 -1.000000 0.000000
vn 0.000000 -1.000000 0.000000
vn 0.000000 -1.000000 0.000000
vn 0.000000 1.000000 0.000000
vn 0.000000 1.000000 0.000000
vn 0.000000 1.000000 0.000000
vn 0.000000 1.000000 0.000000
vn -1.000000 0.000000 0.000000
vn -1.000000 0.000000 0.000000
vn -1.000000 0.000000 0.000000
vn -1.000000 0.000000 0.000000
vn -1.000000 0.000000 0.000000
vn -1.000000 0.000000 0.000000
vn 0.000000 -1.000000 0.000000
vn 0.000000 -1.000000 0.000000
vn 0.000000 -1.000000 0.000000
vn 0.000000 1.000000 0.000000
vn 0.000000 1.000000 0.000000
vn 0.000000 1.000000 0.000000
vn 1.000000 0.000000 0.000000
vn 1.000000 0.000000 0.000000
vn 1.000000 0.000000 0.000000
vn 1.000000 0.000000 0.000000
vn 1.000000 0.000000 0.000000
vn 1.000000 0.000000 0.000000
vn 0.000000 -1.000000 0.000000
vn 0.000000 -1.000000 0.000000
vn 0.000000 -1.000000 0.000000
vn 0.000000 -1.000000 0.000000
vn 0.000000 1.000000 0.000000
vn 0.000000 1.000000 0.000000
vn 0.000000 1.000000 0.000000
vn 0.000000 -1.000000 0.000000
vn 0.000000 -1.000000 0.000000
vn 0.000000 -1.000000 0.000000

g polygon1
s 1
usemtl mat1
f 17/17/17 18/18/18 19/19/19
f 17/17/17 20/20/20 18/18/18
f 21/21/21 22/22/22 23/23/23
f 21/21/21 24/24/24 22/22/22
f 25/25/25 26/26/26 27/27/27
f 25/25/25 28/28/28 26/26/26
f 29/29/29 30/30/30 31/31/31
f 29/29/29 32/32/32 30/30/30
f 33/33/33 34/34/34 35/35/35
f 33/33/33 36/36/36 34/34/34
f 37/37/37 38/38/38 39/39/39
f 37/37/37 40/40/40 38/38/38
f 41/41/41 42/42/42 43/43/43
f 41/41/41 44/44/44 42/42/42
f 45/45/45 46/46/46 47/47/47
f 45/45/45 48/48/48 46/46/46
f 49/49/49 50/50/50 51/51/51
f 49/49/49 52/52/52 50/50/50
f 53/53/53 54/54/54 55/55/55
f 53/53/53 56/56/56 54/54/54
f 57/57/57 58/58/58 59/59/59
f 57/57/57 60/60/60 58/58/58
f 61/61/61 62/62/62 63/63/63
f 61/61/61 64/64/64 62/62/62
f 65/65/65 66/66/66 67/67/67
f 65/65/65 68/68/68 66/66/66
f 69/69/69 70/70/70 71/71/71
f 69/69/69 72/72/72 70/70/70
f 73/73/73 74/74/74 75/75/75
f 73/73/73 76/76/76 74/74/74
f 77/77/77 78/78/78 79/79/79
f 77/77/77 80/80/80 78/78/78
f 81/81/81 82/82/82 83/83/83
f 81/81/81 84/84/84 82/82/82
f 85/85/85 86/86/86 87/87/87
f 85/85/85 88/88/88 86/86/86
f 89/89/89 90/90/90 91/91/91
f 89/89/89 92/92/92 90/90/90
f 93/93/93 94/94/94 95/95/95
f 93/93/93 96/96/96 94/94/94
f 97/97/97 98/98/98 99/99/99
f 97/97/97 100/100/100 98/98/98
f 101/101/101 102/102/102 103/103/103
f 101/101/101 104/104/104 102/102/102
f 105/105/105 106/106/106 107/107/107
f 105/105/105 108/108/108 106/106/106
f 109/109/109 110/110/110 111/111/111
f 109/109/109 112/112/112 110/110/110
f 108/108/108 113/113/113 114/114/114
f 108/108/108 115/115/115 113/113/113
f 111/111/111 116/116/116 117/117/117
f 111/111/111 118/118/118 116/116/116
f 119/119/119 120/120/120 121/121/121
f 119/119/119 122/122/122 120/120/120
f 123/123/123 124/124/124 125/125/125
f 123/123/123 126/126/126 124/124/124
f 127/127/127 128/128/128 129/129/129
f 127/127/127 130/130/130 128/128/128
f 131/131/131 132/132/132 133/133/133
f 131/131/131 134/134/134 132/132/132
f 135/135/135 136/136/136 137/137/137
f 135/135/135 138/138/138 136/136/136
f 139/139/139 140/140/140 141/141/141
f 139/139/139 142/142/142 140/140/140
f 143/143/143 144/144/144 145/145/145
f 143/143/143 139/139/139 144/144/144
f 146/146/146 147/147/147 148/148/148
f 146/146/146 136/136/136 147/147/147
f 149/149/149 150/150/150 151/151/151
f 149/149/149 152/152/152 150/150/150
f 153/153/153 154/154/154 155/155/155
f 153/153/153 156/156/156 154/154/154
f 157/157/157 158/158/158 159/159/159
f 157/157/157 160/160/160 158/158/158
f 161/161/161 162/162/162 163/163/163
f 161/161/161 164/164/164 162/162/162
f 165/165/165 166/166/166 167/167/167
f 165/165/165 168/168/168 166/166/166
f 169/169/169 170/170/170 123/123/123
f 169/169/169 171/171/171 170/170/170
f 172/172/172 173/173/173 174/174/174
f 172/172/172 158/158/158 173/173/173
f 130/130/130 175/175/175 176/176/176
f 130/130/130 177/177/177 175/175/175
f 178/178/178 179/179/179 180/180/180
f 178/178/178 131/131/131 179/179/179
f 155/155/155 181/181/181 182/182/182
f 155/155/155 183/183/183 181/181/181
f 184/184/184 122/122/122 185/185/185
f 184/184/184 186/186/186 122/122/122
f 187/187/187 188/188/188 189/189/189
f 187/187/187 190/190/190 188/188/188
f 191/191/191 192/192/192 193/193/193
f 191/191/191 166/166/166 192/192/192
f 163/163/163 194/194/194 195/195/195
f 163/163/163 196/196/196 194/194/194

v -6.625000 7.125000 -5.562500
v 6.625000 7.125000 5.562500
v -5.562500 7.125000 -6.625000
v 5.562500 7.125000 6.625000
v -5.562500 7.125000 -6.625000
v 6.625000 -7.125000 5.562500
v -5.562500 -7.125000 -6.625000
v 6.625000 7.125000 5.562500
v -5.562500 -7.125000 -6.625000
v 5.562500 -7.125000 6.625000
v -6.625000 -7.125000 -5.562500
v 6.625000 -7.125000 5.562500
v -6.625000 -7.125000 -5.562500
v 5.562500 7.125000 6.625000
v -6.625000 7.125000 -5.562500
v 5.562500 -7.125000 6.625000
v -6.625000 -5.562500 -7.125000
v 6.625000 5.562500 -7.125000
v -5.562500 -6.625000 -7.125000
v 5.562500 6.625000 -7.125000
v -5.562500 -6.625000 -7.125000
v 6.625000 5.562500 7.125000
v -5.562500 -6.625000 7.125000
v 6.625000 5.562500 -7.125000
v -5.562500 -6.625000 7.125000
v 5.562500 6.625000 7.125000
v -6.625000 -5.562500 7.125000
v 6.625000 5.562500 7.125000
v -6.625000 -5.562500 7.125000
v 5.562500 6.625000 -7.125000
v -6.625000 -5.562500 -7.125000
v 5.562500 6.625000 7.125000

vt 1.000000 0.054688
vt 0.000000 0.109375
vt 1.000000 0.109375
vt 0.000000 0.054688
vt 1.000000 0.109375
vt 0.000000 0.109375
vt 1.000000 0.109375
vt 0.000000 0.109375
vt 1.000000 0.109375
vt 0.000000 0.054688
vt 1.000000 0.054688
vt 0.000000 0.109375
vt 1.000000 0.054688
vt 0.000000 0.054688
vt 1.000000 0.054688
vt 0.000000 0.054688
vt 1.000000 0.054688
vt 0.000000 0.109375
vt 1.000000 0.109375
vt 0.000000 0.054688
vt 1.000000 0.109375
vt 0.000000 0.109375
vt 1.000000 0.109375
vt 0.000000 0.109375
vt 1.000000 0.109375
vt 0.000000 0.054688
vt 1.000000 0.054688
vt 0.000000 0.109375
vt 1.000000 0.054688
vt 0.000000 0.054688
vt 1.000000 0.054688
vt 0.000000 0.054688

vn 0.000000 1.000000 0.000000
vn 0.000000 1.000000 0.000000
vn 0.000000 1.000000 0.000000
vn 0.000000 1.000000 0.000000
vn 0.707107 0.000000 -0.707107
vn 0.707107 0.000000 -0.707107
vn 0.707107 0.000000 -0.707107
vn 0.707107 0.000000 -0.707107
vn 0.000000 -1.000000 0.000000
vn 0.000000 -1.000000 0.000000
vn 0.000000 -1.000000 0.000000
vn 0.000000 -1.000000 0.000000
vn -0.707107 0.000000 0.707107
vn -0.707107 0.000000 0.707107
vn -0.707107 0.000000 0.707107
vn -0.707107 0.000000 0.707107
vn 0.000000 0.000000 -1.000000
vn 0.000000 0.000000 -1.000000
vn 0.000000 0.000000 -1.000000
vn 0.000000 0.000000 -1.000000
vn 0.707107 -0.707107 0.000000
vn 0.707107 -0.707107 0.000000
vn 0.707107 -0.707107 0.000000
vn 0.707107 -0.707107 0.000000
vn 0.000000 0.000000 1.000000
vn 0.000000 0.000000 1.000000
vn 0.000000 0.000000 1.000000
vn 0.000000 0.000000 1.000000
vn -0.707107 0.707107 0.000000
vn -0.707107 0.707107 0.000000
vn -0.707107 0.707107 0.000000
vn -0.707107 0.707107 0.000000

g polygon2
s 1
usemtl mat1
f 197/197/197 198/198/198 199/199/199
f 197/197/197 200/200/200 198/198/198
f 201/201/201 202/202/202 203/203/203
f 201/201/201 204/204/204 202/202/202
f 205/205/205 206/206/206 207/207/207
f 205/205/205 208/208/208 206/206/206
f 209/209/209 210/210/210 211/211/211
f 209/209/209 212/212/212 210/210/210
f 213/213/213 214/214/214 215/215/215
f 213/213/213 216/216/216 214/214/214
f 217/217/217 218/218/218 219/219/219
f 217/217/217 220/220/220 218/218/218
f 221/221/221 222/222/222 223/223/223
f 221/221/221 224/224/224 222/222/222
f 225/225/225 226/226/226 227/227/227
f 225/225/225 228/228/228 226/226/226

v 6.750000 -6.750000 -6.750000
v 6.750000 6.750000 6.750000
v 6.750000 -6.750000 6.750000
v 6.750000 6.750000 -6.750000
v -6.750000 -6.750000 6.750000
v -6.750000 6.750000 -6.750000
v -6.750000 -6.750000 -6.750000
v -6.750000 6.750000 6.750000

vt 1.000000 0.554688
vt 0.000000 1.000000
vt 0.000000 0.554688
vt 1.000000 1.000000
vt 1.000000 0.554688
vt 0.000000 1.000000
vt 0.000000 0.554688
vt 1.000000 1.000000

vn 1.000000 0.000000 0.000000
vn 1.000000 0.000000 0.000000
vn 1.000000 0.000000 0.000000
vn 1.000000 0.000000 0.000000
vn -1.000000 0.000000 0.000000
vn -1.000000 0.000000 0.000000
vn -1.000000 0.000000 0.000000
vn -1.000000 0.000000 0.000000

g polygon3
s 1
usemtl mat1
f 229/229/229 230/230/230 231/231/231
f 229/229/229 232/232/232 230/230/230
f 233/233/233 234/234/234 235/235/235
f 233/233/233 236/236/236 234/234/234

